<?xml version="1.0" encoding="utf-8"?>
<!-- Generator: Adobe Illustrator 23.1.0, SVG Export Plug-In . SVG Version: 6.00 Build 0)  -->
<svg version="1.1" id="Layer_1" xmlns="http://www.w3.org/2000/svg" xmlns:xlink="http://www.w3.org/1999/xlink" x="0px" y="0px"
	 viewBox="0 0 541.07 108.25" style="enable-background:new 0 0 541.07 108.25;" xml:space="preserve">
<style type="text/css">
	.st0{fill:#FF385C;}
	.st1{fill:#FFFFFF;}
	.st2{fill:#ECECEC;}
</style>
<g>
	<g transform="matrix(.65032 0 0 .65032 -2.4972 35.155)">
		<g>
			<path class="st0" d="M339.84,25.09c0-8,3.5-15.7,9.5-21.1l60.7-54.3c5.6-5,14-5,19.6,0l60.7,54.2c6,5.4,9.5,13.1,9.5,21.1v73.1
				c0,7.9-6.5,14.3-14.5,14.3h-131c-8,0-14.5-6.4-14.5-14.3V25.09z"/>
		</g>
	</g>
	<g>
		<path class="st1" d="M300.02,89.48l-3.14,3.14c-1.03,1.04-2.72,1.04-3.76,0l-11.06-11.06c-0.5-0.5-0.78-1.18-0.78-1.89v-1.81
			c-3.91,3.06-8.84,4.88-14.2,4.88c-12.74,0-23.07-10.33-23.07-23.07c0-12.74,10.32-23.07,23.07-23.07
			c12.74,0,23.07,10.32,23.07,23.07c0,5.36-1.82,10.28-4.88,14.2h1.81c0.71,0,1.39,0.28,1.88,0.78l11.06,11.06
			C301.06,86.75,301.06,88.44,300.02,89.48z M281.28,59.68c0-7.85-6.35-14.2-14.2-14.2c-7.85,0-14.2,6.35-14.2,14.2
			c0,7.85,6.35,14.2,14.2,14.2C274.94,73.87,281.28,67.52,281.28,59.68z"/>
	</g>
</g>
<g transform="matrix(.65032 0 0 .65032 -2.4972 35.155)">
	<g>
		<path class="st2" d="M507.84,25.09c0-8,3.5-15.7,9.5-21.1l60.7-54.3c5.6-5,14-5,19.6,0l60.7,54.2c6,5.4,9.5,13.1,9.5,21.1v73.1
			c0,7.9-6.5,14.3-14.5,14.3h-131c-8,0-14.5-6.4-14.5-14.3L507.84,25.09z"/>
	</g>
</g>
<g transform="matrix(.65032 0 0 .65032 -2.4972 35.155)">
	<g>
		<path class="st2" d="M675.84,25.09c0-8,3.5-15.7,9.5-21.1l60.7-54.3c5.6-5,14-5,19.6,0l60.7,54.2c6,5.4,9.5,13.1,9.5,21.1v73.1
			c0,7.9-6.5,14.3-14.5,14.3h-131c-8,0-14.5-6.4-14.5-14.3L675.84,25.09z"/>
	</g>
</g>
<g transform="matrix(.65032 0 0 .65032 -2.4972 35.155)">
	<g>
		<path class="st2" d="M171.84,25.09c0-8,3.5-15.7,9.5-21.1l60.7-54.3c5.6-5,14-5,19.6,0l60.7,54.2c6,5.4,9.5,13.1,9.5,21.1v73.1
			c0,7.9-6.5,14.3-14.5,14.3h-131c-8,0-14.5-6.4-14.5-14.3L171.84,25.09z"/>
	</g>
</g>
<g transform="matrix(.65032 0 0 .65032 -2.4972 35.155)">
	<g>
		<path class="st2" d="M3.84,25.09c0-8,3.5-15.7,9.5-21.1l60.7-54.3c5.6-5,14-5,19.6,0l60.7,54.2c6,5.4,9.5,13.1,9.5,21.1v73.1
			c0,7.9-6.5,14.3-14.5,14.3h-131c-8,0-14.5-6.4-14.5-14.3L3.84,25.09z"/>
	</g>
</g>
</svg>
