<?xml version="1.0" encoding="UTF-8"?>
<!-- Generator: Adobe Illustrator 23.1.1, SVG Export Plug-In . SVG Version: 6.00 Build 0)  -->
<svg enable-background="new 0 0 576 215" version="1.1" viewBox="0 0 576 215" xml:space="preserve" xmlns="http://www.w3.org/2000/svg" xmlns:cc="http://creativecommons.org/ns#" xmlns:dc="http://purl.org/dc/elements/1.1/" xmlns:rdf="http://www.w3.org/1999/02/22-rdf-syntax-ns#"><metadata><rdf:RDF><cc:Work rdf:about=""><dc:format>image/svg+xml</dc:format><dc:type rdf:resource="http://purl.org/dc/dcmitype/StillImage"/><dc:title/></cc:Work></rdf:RDF></metadata>





<g transform="matrix(.35783 0 0 .35783 184.02 6.1479)" stroke-width="2.7947"><g fill="#FF385C"><path class="st0" d="m518 113h-378.8c-13.2 0-24 10.8-24 24v231.6c0 13.2 10.8 24 24 24h378.8c13.2 0 24-10.8 24-24v-231.6c0-13.2-10.8-24-24-24z"/><path class="st0" d="m94.6 533.2h-47.5v-488.8c0-10.1 8.2-18.3 18.3-18.3h10.8c10.1 0 18.3 8.2 18.3 18.3v488.8z"/><path class="st0" d="m34.1 71.7v-9.8c0-9.7 7.8-17.5 17.5-17.5h472.9c9.7 0 17.5 7.8 17.5 17.5v9.8c0 9.7-7.8 17.5-17.5 17.5h-472.9c-9.7 0-17.5-7.8-17.5-17.5z"/><path class="st0" d="m181.6 86.7h21.1c2 0 3.6 1.6 3.6 3.6v26.1c0 2-1.6 3.6-3.6 3.6h-21.1c-2 0-3.6-1.6-3.6-3.6v-26.2c0.1-2 1.7-3.5 3.6-3.5z"/><path class="st0" d="m455.9 86.7h21.1c2 0 3.6 1.6 3.6 3.6v26.1c0 2-1.6 3.6-3.6 3.6h-21.1c-2 0-3.6-1.6-3.6-3.6v-26.2c0-2 1.6-3.5 3.6-3.5z"/></g><path class="st1" d="m250.6 251c0-8.3 3.6-16.3 9.9-21.9l62.8-56.1c5.8-5.1 14.5-5.1 20.3 0l62.8 56.1c6.3 5.6 9.8 13.5 9.9 21.9v75.6c0 8.2-6.7 14.8-15.1 14.8h-135.6c-8.3 0-15.1-6.6-15.1-14.8v-75.6z" fill="#fff"/></g></svg>
